<svg width="163" height="46" viewBox="0 0 163 46" fill="none" xmlns="http://www.w3.org/2000/svg">
<g clip-path="url(#clip0_133_1043)">
<path d="M51.0342 19.7762V4.43066H60.7019V6.57905H53.4019V10.9854H60.0882V13.1338H53.4019V17.6279H60.8114V19.7762H51.0342Z" fill="black"/>
<path d="M62.907 19.7765V8.96886H65.1213V10.5911H65.4718C65.6765 10.1527 66.0419 9.74345 66.5681 9.36346C67.0943 8.98347 67.8761 8.79346 68.9136 8.79346C69.732 8.79346 70.4556 8.97615 71.0839 9.34153C71.727 9.70691 72.2312 10.2257 72.5967 10.898C72.9621 11.5557 73.1448 12.3522 73.1448 13.2875V19.7765H70.8866V13.4629C70.8866 12.5276 70.6529 11.8407 70.1853 11.4022C69.7177 10.9492 69.0743 10.7226 68.2559 10.7226C67.3206 10.7226 66.5681 11.0295 65.998 11.6434C65.4428 12.2572 65.1649 13.1487 65.1649 14.3179V19.7765H62.907Z" fill="black"/>
<path d="M80.9102 20.0831C79.8142 20.0831 78.8569 19.8566 78.0385 19.4035C77.2201 18.9359 76.5767 18.2855 76.1091 17.4525C75.6561 16.6048 75.4294 15.6256 75.4294 14.5149V14.2518C75.4294 13.1265 75.6561 12.1473 76.1091 11.3142C76.5624 10.4666 77.1908 9.81621 77.9946 9.36316C78.813 8.89547 79.7556 8.66162 80.8226 8.66162C81.8601 8.66162 82.7664 8.89547 83.5408 9.36316C84.33 9.81621 84.9437 10.4519 85.3824 11.2704C85.8207 12.0888 86.0401 13.0461 86.0401 14.1422V14.9972H77.7313C77.7606 15.9471 78.0748 16.7071 78.6742 17.2771C79.2879 17.8324 80.0478 18.1101 80.9541 18.1101C81.8018 18.1101 82.4375 17.9201 82.8612 17.5402C83.2995 17.1602 83.6357 16.7217 83.8697 16.2248L85.7332 17.1894C85.5285 17.5986 85.229 18.0297 84.8342 18.4828C84.4541 18.9359 83.9499 19.3159 83.3215 19.6228C82.6931 19.9297 81.8893 20.0831 80.9102 20.0831ZM77.7533 13.2653H83.7382C83.6796 12.4469 83.3874 11.8111 82.8612 11.3581C82.335 10.8904 81.648 10.6566 80.8007 10.6566C79.9529 10.6566 79.2587 10.8904 78.7178 11.3581C78.1919 11.8111 77.8704 12.4469 77.7533 13.2653Z" fill="black"/>
<path d="M88.3198 19.7763V8.96867H90.5338V10.2401H90.8846C91.06 9.7871 91.3376 9.45827 91.7177 9.25364C92.1124 9.03444 92.5947 8.9248 93.1645 8.9248H94.4579V10.9636H93.077C92.3461 10.9636 91.747 11.1682 91.2793 11.5774C90.8117 11.972 90.5777 12.5858 90.5777 13.4189V19.7763H88.3198Z" fill="black"/>
<path d="M95.4473 14.4272V14.0984C95.4473 12.9584 95.6739 11.9865 96.1269 11.1827C96.5945 10.3789 97.2083 9.75776 97.9685 9.31929C98.7283 8.88086 99.5614 8.66162 100.468 8.66162C101.52 8.66162 102.324 8.85892 102.879 9.25353C103.449 9.64813 103.866 10.072 104.128 10.525H104.479V8.96856H106.672V21.9904C106.672 22.648 106.474 23.1742 106.08 23.5688C105.7 23.9634 105.174 24.1607 104.501 24.1607H97.2229V22.1877H103.8C104.224 22.1877 104.435 21.9685 104.435 21.53V18.0882H104.085C103.924 18.3513 103.697 18.6217 103.405 18.8993C103.113 19.177 102.726 19.4035 102.243 19.5789C101.776 19.7543 101.184 19.842 100.468 19.842C99.5614 19.842 98.721 19.6301 97.9465 19.2062C97.1866 18.7678 96.5799 18.1467 96.1269 17.3429C95.6739 16.5244 95.4473 15.5525 95.4473 14.4272ZM101.081 17.869C102.061 17.869 102.864 17.5621 103.493 16.9483C104.136 16.3198 104.457 15.4575 104.457 14.3614V14.1641C104.457 13.0388 104.143 12.1765 103.515 11.5773C102.886 10.9635 102.075 10.6566 101.081 10.6566C100.117 10.6566 99.3131 10.9635 98.6701 11.5773C98.0413 12.1765 97.7271 13.0388 97.7271 14.1641V14.3614C97.7271 15.4575 98.0413 16.3198 98.6701 16.9483C99.3131 17.5621 100.117 17.869 101.081 17.869Z" fill="black"/>
<path d="M110.807 24.1609V22.1878H116.836C117.245 22.1878 117.45 21.9686 117.45 21.5302V18.198H117.099C116.968 18.4903 116.763 18.7753 116.485 19.053C116.222 19.3161 115.864 19.5353 115.411 19.7106C114.958 19.886 114.388 19.9737 113.701 19.9737C112.883 19.9737 112.152 19.791 111.509 19.4257C110.866 19.0603 110.362 18.5415 109.996 17.8692C109.631 17.1969 109.448 16.4004 109.448 15.4797V8.96875H111.706V15.3043C111.706 16.2396 111.94 16.9338 112.408 17.3869C112.875 17.8253 113.526 18.0445 114.359 18.0445C115.279 18.0445 116.018 17.7376 116.573 17.1238C117.143 16.51 117.428 15.6185 117.428 14.4493V8.96875H119.686V21.9905C119.686 22.6482 119.488 23.1744 119.094 23.569C118.714 23.9636 118.188 24.1609 117.515 24.1609H110.807Z" fill="black"/>
<path d="M51.0342 41.7197V26.374H60.5045V28.5224H53.4019V32.9507H59.9347V35.0991H53.4019V41.7197H51.0342Z" fill="black"/>
<path d="M66.5793 41.9168C65.7609 41.9168 65.0303 41.7341 64.3873 41.3686C63.7439 41.0032 63.24 40.4843 62.8746 39.8119C62.5091 39.1396 62.3264 38.3358 62.3264 37.4006V30.9116H64.5843V37.2472C64.5843 38.1824 64.8183 38.8767 65.2859 39.3297C65.7536 39.7684 66.4039 39.9874 67.237 39.9874C68.1579 39.9874 68.8958 39.6805 69.4513 39.0667C70.0211 38.4384 70.306 37.5394 70.306 36.3702V30.9116H72.5643V41.7194H70.3499V40.0972H69.9991C69.7948 40.5355 69.4293 40.9519 68.9031 41.3466C68.3769 41.7267 67.6024 41.9168 66.5793 41.9168Z" fill="black"/>
<path d="M75.4634 41.7195V30.9117H77.6777V32.534H78.0285C78.2329 32.0955 78.5983 31.6863 79.1245 31.3063C79.6507 30.9263 80.4325 30.7363 81.4703 30.7363C82.2887 30.7363 83.012 30.919 83.6403 31.2844C84.2834 31.6497 84.7876 32.1686 85.1531 32.8409C85.5185 33.4986 85.7012 34.295 85.7012 35.2303V41.7195H83.4433V35.4057C83.4433 34.4704 83.2093 33.7835 82.7417 33.3451C82.2741 32.892 81.6311 32.6655 80.8126 32.6655C79.877 32.6655 79.1245 32.9724 78.5544 33.5862C77.9992 34.2001 77.7213 35.0915 77.7213 36.2607V41.7195H75.4634Z" fill="black"/>
<path d="M92.9847 42.0266C92.0934 42.0266 91.2676 41.8072 90.5074 41.3689C89.7476 40.9306 89.1338 40.3018 88.6659 39.4834C88.2129 38.6503 87.9866 37.6495 87.9866 36.4803V36.1515C87.9866 34.9968 88.2129 34.003 88.6659 33.1699C89.1192 32.3369 89.7256 31.7011 90.4854 31.2627C91.2456 30.8243 92.0787 30.605 92.9847 30.605C93.6863 30.605 94.2707 30.6927 94.7383 30.8681C95.2206 31.0435 95.6154 31.27 95.9222 31.5477C96.2291 31.8108 96.4631 32.0884 96.6238 32.3807H96.9746V26.374H99.2325V41.7197H97.0182V40.185H96.6678C96.3898 40.6526 95.9662 41.0767 95.396 41.4564C94.8409 41.8365 94.0371 42.0266 92.9847 42.0266ZM93.6204 40.0536C94.5996 40.0536 95.4033 39.7394 96.0317 39.111C96.6751 38.4823 96.9966 37.5836 96.9966 36.4144V36.217C96.9966 35.0624 96.6824 34.1711 96.0537 33.5426C95.4253 32.9142 94.6142 32.5999 93.6204 32.5999C92.6558 32.5999 91.852 32.9142 91.209 33.5426C90.5806 34.1711 90.2665 35.0624 90.2665 36.217V36.4144C90.2665 37.5836 90.5806 38.4823 91.209 39.111C91.852 39.7394 92.6558 40.0536 93.6204 40.0536Z" fill="black"/>
<path d="M108.432 41.7197L106.175 26.374H108.542L110.384 40.1191H110.734L113.102 26.374H117.245L119.613 40.1191H119.964L121.783 26.374H124.151L121.893 41.7197H117.749L115.338 27.7771H114.987L112.598 41.7197H108.432Z" fill="black"/>
<path d="M130.968 42.0265C129.886 42.0265 128.921 41.8072 128.074 41.3689C127.241 40.9159 126.583 40.2729 126.101 39.4398C125.618 38.6067 125.377 37.6202 125.377 36.4803V36.1514C125.377 35.0113 125.618 34.0322 126.101 33.2137C126.583 32.3807 127.241 31.7376 128.074 31.2846C128.921 30.8315 129.886 30.605 130.968 30.605C132.049 30.605 133.014 30.8315 133.861 31.2846C134.709 31.7376 135.374 32.3807 135.856 33.2137C136.339 34.0322 136.579 35.0113 136.579 36.1514V36.4803C136.579 37.6202 136.339 38.6067 135.856 39.4398C135.374 40.2729 134.709 40.9159 133.861 41.3689C133.014 41.8072 132.049 42.0265 130.968 42.0265ZM130.968 40.0096C131.961 40.0096 132.765 39.6954 133.379 39.067C134.007 38.424 134.322 37.5397 134.322 36.4144V36.217C134.322 35.0917 134.015 34.2149 133.401 33.5864C132.787 32.9434 131.976 32.6218 130.968 32.6218C129.988 32.6218 129.185 32.9434 128.556 33.5864C127.942 34.2149 127.635 35.0917 127.635 36.217V36.4144C127.635 37.5397 127.942 38.424 128.556 39.067C129.185 39.6954 129.988 40.0096 130.968 40.0096Z" fill="black"/>
<path d="M138.952 41.7198V30.912H141.166V32.1835H141.517C141.693 31.7305 141.97 31.4016 142.35 31.197C142.745 30.9778 143.227 30.8682 143.797 30.8682H145.09V32.9069H143.71C142.979 32.9069 142.38 33.1115 141.912 33.5208C141.444 33.9154 141.21 34.5292 141.21 35.3621V41.7198H138.952Z" fill="black"/>
<path d="M146.992 41.7197V26.374H149.25V41.7197H146.992Z" fill="black"/>
<path d="M156.634 42.0266C155.743 42.0266 154.917 41.8072 154.157 41.3689C153.397 40.9306 152.783 40.3018 152.316 39.4834C151.863 38.6503 151.636 37.6495 151.636 36.4803V36.1515C151.636 34.9968 151.863 34.003 152.316 33.1699C152.769 32.3369 153.375 31.7011 154.135 31.2627C154.895 30.8243 155.728 30.605 156.634 30.605C157.336 30.605 157.92 30.6927 158.388 30.8681C158.871 31.0435 159.265 31.27 159.572 31.5477C159.879 31.8108 160.113 32.0884 160.273 32.3807H160.624V26.374H162.882V41.7197H160.668V40.185H160.317C160.04 40.6526 159.616 41.0767 159.046 41.4564C158.491 41.8365 157.687 42.0266 156.634 42.0266ZM157.27 40.0536C158.249 40.0536 159.053 39.7394 159.682 39.111C160.325 38.4823 160.646 37.5836 160.646 36.4144V36.217C160.646 35.0624 160.332 34.1711 159.704 33.5426C159.075 32.9142 158.264 32.5999 157.27 32.5999C156.305 32.5999 155.502 32.9142 154.859 33.5426C154.23 34.1711 153.916 35.0624 153.916 36.217V36.4144C153.916 37.5836 154.23 38.4823 154.859 39.111C155.502 39.7394 156.305 40.0536 157.27 40.0536Z" fill="black"/>
<path d="M31.1092 29.9457L37.9105 33.8725V41.7272L37.9095 41.7265L31.107 45.6541V37.8004L24.3057 33.8737V26.019L24.3067 26.0197L31.1092 22.0923V29.9457Z" fill="#4FB9EF"/>
<path d="M14.1096 24.0494L7.30834 27.9761L0.505859 24.0487L0.50704 24.0481L0.507041 16.1934L7.30834 20.1201L14.1096 16.1934L20.9121 20.1207L20.9109 20.1213V27.9761L14.1096 24.0494Z" fill="#4FB9EF"/>
<path d="M27.7141 12.275V4.42154L34.5166 0.494141L34.5165 0.49544L41.3188 4.42283L34.5176 8.34957V16.203L27.7152 20.1304L27.7153 20.1291L20.9128 16.2017L27.7141 12.275Z" fill="#4FB9EF"/>
</g>
<defs>
<clipPath id="clip0_133_1043">
<rect width="162.5" height="45.6813" fill="white" transform="translate(0.5 0.15918)"/>
</clipPath>
</defs>
</svg>
